<?xml version="1.0" encoding="UTF-8"?><svg id="uuid-e8185a00-e9d8-4af3-b6b8-5417112e23bd" xmlns="http://www.w3.org/2000/svg" viewBox="0 0 324.66 353"><defs><style>.uuid-9c582c36-c20f-4663-8c92-b1a1c8075fa3{fill:#a8a1ff;}.uuid-9c582c36-c20f-4663-8c92-b1a1c8075fa3,.uuid-d3038e14-b281-4656-bccf-3e111bc4bf6a,.uuid-27457287-e321-484f-8104-9d7bcabc91c9{stroke-width:0px;}.uuid-d3038e14-b281-4656-bccf-3e111bc4bf6a{fill:#5c55c4;}.uuid-27457287-e321-484f-8104-9d7bcabc91c9{fill:#806dff;}</style></defs><g id="uuid-f2e8cad2-3a59-4352-8105-4416b7a55345"><path class="uuid-27457287-e321-484f-8104-9d7bcabc91c9" d="M99.69,86.75c-68.02,52.28-66.95,158.62,5.66,204.68,21.12,13.45,45.92,19.55,69.82,17.77,12.08-.9,22.59,8.16,23.5,20.23,1.1,13.23-10.28,24.58-23.5,23.5C73.81,348.31,3.31,244.89,42.18,150.49c11.23-27.72,31.67-50.73,56.19-65.65.55-.33,1.27-.16,1.6.39.31.51.18,1.17-.28,1.53h0Z"/><path class="uuid-27457287-e321-484f-8104-9d7bcabc91c9" d="M256.97,313.88c68.57-52.21,67.74-159-4.93-205.67-21.25-13.71-46.3-20.07-70.55-18.42-11.17.76-20.84-7.68-21.6-18.85-.76-11.17,7.68-20.84,18.85-21.6,9.07.01,18.13,1.4,26.99,3.11,88.83,17.87,142.98,113.66,108.37,197.55-11.07,27.68-31.36,50.75-55.8,65.79-.55.34-1.27.17-1.6-.38-.32-.51-.19-1.18.28-1.54h0Z"/><path class="uuid-d3038e14-b281-4656-bccf-3e111bc4bf6a" d="M229.79,121.5c23.54,12.83,40.71,39,43.14,66.49,5.64,53.28-36.94,100.27-90.26,103.79-27.95,1.35-31.48-38.44-3.71-42.01,7.92.09,15.69,1.13,23.72-.65,20.97-4.11,38.49-18.72,47.5-38.82,12.97-29.86,3.74-65.77-21.71-86.88-1.08-.82.12-2.65,1.32-1.92h0Z"/><path class="uuid-9c582c36-c20f-4663-8c92-b1a1c8075fa3" d="M81.25,329.17c-2-1.27-6.53-4.41-8.43-5.63-1.61-1.26-6.41-4.82-8.11-6.14,0,0-5.16-4.41-5.16-4.41-2.92-2.38-7.18-6.67-9.95-9.3-1.61-1.71-5.41-5.89-6.95-7.53-1.33-1.64-5.12-6.24-6.5-7.95-2.21-3.24-5.93-7.89-7.88-11.25,0,0-3.7-5.82-3.7-5.82-1.12-2.01-3.95-7.11-5.02-9.05-.97-1.98-3.5-7.31-4.48-9.36l-2.62-6.42C-33.39,130,53.17,4.39,177.52,0c26.95-.33,28.9,38.1,2.01,40.46C63.5,33.75-16.12,154.71,30.27,260.7c0,0,2.64,5.95,2.64,5.95.98,1.88,3.55,6.87,4.5,8.69,1.08,1.84,3.91,6.55,5.03,8.43,1.18,1.7,4.38,6.47,5.53,8.14,1.32,1.76,4.67,6.04,6.02,7.82,1.35,1.5,5.16,5.98,6.49,7.47,1.56,1.64,5.36,5.44,6.94,7.09,2.73,2.42,7.05,6.57,9.96,8.77,0,0,5.19,4.17,5.19,4.17l.05.04c1.1.82-.12,2.73-1.38,1.87h0Z"/></g></svg>