<svg xmlns="http://www.w3.org/2000/svg" xmlns:xlink="http://www.w3.org/1999/xlink" width="1080" zoomAndPan="magnify" viewBox="0 0 810 809.999993" height="1080" preserveAspectRatio="xMidYMid meet" version="1.0"><defs><g/></defs><g fill="#000000" fill-opacity="1"><g transform="translate(225.796867, 596.24999)"><g><path d="M 199.203125 -198 C 197.066406 -197.726562 194.597656 -197.394531 191.796875 -197 C 188.992188 -196.601562 186.53125 -196.269531 184.40625 -196 C 182.53125 -196 179.328125 -195.664062 174.796875 -195 C 170.265625 -194.332031 165.734375 -193.46875 161.203125 -192.40625 C 156.671875 -191.332031 152.535156 -190.460938 148.796875 -189.796875 C 145.066406 -189.128906 142.800781 -188.796875 142 -188.796875 C 139.863281 -188.796875 136.128906 -188.128906 130.796875 -186.796875 C 127.066406 -185.992188 124.734375 -185.257812 123.796875 -184.59375 C 122.867188 -183.925781 121.738281 -182.53125 120.40625 -180.40625 C 119.863281 -179.332031 118.992188 -177.660156 117.796875 -175.390625 C 116.597656 -173.128906 115.46875 -170.929688 114.40625 -168.796875 C 109.601562 -160.265625 104.398438 -150.597656 98.796875 -139.796875 C 93.203125 -128.992188 87.800781 -118.257812 82.59375 -107.59375 C 77.394531 -96.925781 72.726562 -87.125 68.59375 -78.1875 C 64.46875 -69.257812 61.335938 -62.265625 59.203125 -57.203125 C 56.535156 -50.535156 53.867188 -43.867188 51.203125 -37.203125 C 48.535156 -30.535156 46.132812 -25.203125 44 -21.203125 C 43.46875 -19.335938 42.9375 -17.070312 42.40625 -14.40625 C 41.332031 -11.46875 40.53125 -10.132812 40 -10.40625 C 38.9375 -10.40625 38.40625 -9.46875 38.40625 -7.59375 C 38.40625 -6.800781 38.132812 -5.203125 37.59375 -2.796875 C 37.0625 -0.398438 36.265625 2.128906 35.203125 4.796875 C 34.128906 7.460938 32.859375 11.328125 31.390625 16.390625 C 29.929688 21.460938 28.535156 26.398438 27.203125 31.203125 C 26.128906 35.734375 24.925781 39.929688 23.59375 43.796875 C 22.257812 47.660156 21.328125 49.992188 20.796875 50.796875 C 20.535156 51.597656 20.203125 52.664062 19.796875 54 C 19.398438 55.332031 19.066406 56.664062 18.796875 58 C 16.929688 68.9375 12.132812 71.601562 4.40625 66 C 3.332031 65.46875 2.328125 64.867188 1.390625 64.203125 C 0.460938 63.535156 -0.132812 63.203125 -0.40625 63.203125 C -0.664062 63.203125 -1.460938 62.800781 -2.796875 62 C -4.128906 61.195312 -5.460938 60.265625 -6.796875 59.203125 C -9.992188 56.535156 -11.328125 54.535156 -10.796875 53.203125 C -10.535156 52.671875 -10.003906 50.800781 -9.203125 47.59375 C -8.398438 44.394531 -7.46875 40.664062 -6.40625 36.40625 C -4.53125 30 -2.328125 22.59375 0.203125 14.1875 C 2.734375 5.789062 5.195312 -1.738281 7.59375 -8.40625 C 10 -15.070312 11.601562 -18.9375 12.40625 -20 C 13.195312 -21.332031 13.726562 -22.800781 14 -24.40625 C 14.53125 -25.738281 15.992188 -29.269531 18.390625 -35 C 20.796875 -40.726562 23.332031 -46.796875 26 -53.203125 C 26.53125 -53.734375 27.59375 -55.863281 29.1875 -59.59375 C 30.789062 -63.332031 32.53125 -67.46875 34.40625 -72 C 38.9375 -81.863281 44.132812 -92.925781 50 -105.1875 C 55.863281 -117.457031 61.796875 -129.394531 67.796875 -141 C 73.796875 -152.601562 79.0625 -162.269531 83.59375 -170 L 86 -174.796875 L 82 -174 C 77.726562 -173.195312 71.925781 -171.660156 64.59375 -169.390625 C 57.257812 -167.128906 49.859375 -164.597656 42.390625 -161.796875 C 34.929688 -158.992188 28.597656 -156.457031 23.390625 -154.1875 C 18.191406 -151.925781 15.460938 -150.394531 15.203125 -149.59375 C 14.929688 -148.53125 14.195312 -147.929688 13 -147.796875 C 11.800781 -147.660156 11.203125 -148.128906 11.203125 -149.203125 C 11.203125 -150.003906 10.800781 -150.003906 10 -149.203125 C 7.863281 -147.066406 6.796875 -147.332031 6.796875 -150 C 6.796875 -151.601562 6.265625 -152.40625 5.203125 -152.40625 C 3.597656 -152.40625 2 -156.269531 0.40625 -164 C 0.132812 -165.601562 0.398438 -166.738281 1.203125 -167.40625 C 2.003906 -168.070312 4.535156 -169.335938 8.796875 -171.203125 C 12.796875 -173.066406 18.660156 -175.332031 26.390625 -178 C 34.128906 -180.664062 42.398438 -183.398438 51.203125 -186.203125 C 60.003906 -189.003906 67.738281 -191.203125 74.40625 -192.796875 C 78.9375 -194.128906 83.332031 -195.328125 87.59375 -196.390625 C 91.863281 -197.460938 94.53125 -198.265625 95.59375 -198.796875 C 98.257812 -199.867188 101.660156 -203.132812 105.796875 -208.59375 C 109.929688 -214.0625 112.929688 -219.332031 114.796875 -224.40625 C 115.867188 -226.269531 116.535156 -227.203125 116.796875 -227.203125 C 117.597656 -227.203125 118 -227.867188 118 -229.203125 C 118 -230.535156 118.53125 -230.9375 119.59375 -230.40625 C 120.664062 -230.132812 121.46875 -230.265625 122 -230.796875 C 122.53125 -231.328125 122.394531 -231.863281 121.59375 -232.40625 C 120.800781 -232.664062 120.9375 -233.863281 122 -236 C 123.0625 -237.863281 123.59375 -239.332031 123.59375 -240.40625 C 123.59375 -240.664062 123.992188 -241.394531 124.796875 -242.59375 C 125.597656 -243.800781 126.53125 -245.070312 127.59375 -246.40625 C 130.257812 -249.601562 131.59375 -252 131.59375 -253.59375 C 131.59375 -255.195312 133.59375 -258.132812 137.59375 -262.40625 C 138.132812 -262.9375 138.671875 -263.664062 139.203125 -264.59375 C 139.734375 -265.53125 140.265625 -266.398438 140.796875 -267.203125 C 141.328125 -268.003906 142.191406 -269.40625 143.390625 -271.40625 C 144.597656 -273.40625 145.734375 -275.335938 146.796875 -277.203125 C 149.460938 -281.734375 150.796875 -284.664062 150.796875 -286 C 150.796875 -287.0625 151.460938 -287.863281 152.796875 -288.40625 C 153.867188 -288.40625 154.40625 -289.070312 154.40625 -290.40625 C 154.40625 -291.195312 155.203125 -292.394531 156.796875 -294 C 157.867188 -294.800781 159.800781 -297.265625 162.59375 -301.390625 C 165.394531 -305.523438 168.128906 -309.59375 170.796875 -313.59375 C 173.460938 -317.59375 174.796875 -319.863281 174.796875 -320.40625 C 174.796875 -321.46875 175.660156 -322.664062 177.390625 -324 C 179.128906 -325.332031 180.53125 -326 181.59375 -326 C 182.664062 -326 184.269531 -327.332031 186.40625 -330 C 187.46875 -331.601562 189.195312 -334.070312 191.59375 -337.40625 C 194 -340.738281 196.46875 -344.335938 199 -348.203125 C 201.53125 -352.066406 203.660156 -355.398438 205.390625 -358.203125 C 207.128906 -361.003906 208 -362.535156 208 -362.796875 C 208 -363.328125 209.195312 -364.796875 211.59375 -367.203125 C 212.394531 -368.265625 214.394531 -370.863281 217.59375 -375 C 220.800781 -379.132812 224.132812 -383.601562 227.59375 -388.40625 C 232.394531 -395.332031 237.726562 -402.59375 243.59375 -410.1875 C 249.46875 -417.789062 254.867188 -424.726562 259.796875 -431 C 264.734375 -437.269531 268.132812 -441.46875 270 -443.59375 C 271.332031 -444.925781 272.863281 -446.59375 274.59375 -448.59375 C 276.332031 -450.59375 277.734375 -452.394531 278.796875 -454 C 284.929688 -461.46875 291.929688 -469.398438 299.796875 -477.796875 C 307.660156 -486.203125 315.125 -493.800781 322.1875 -500.59375 C 329.257812 -507.394531 334.53125 -512 338 -514.40625 C 351.332031 -522.9375 361.332031 -523.46875 368 -516 C 370.664062 -512.800781 372.398438 -511.203125 373.203125 -511.203125 C 374.265625 -511.203125 375.796875 -510.203125 377.796875 -508.203125 C 379.796875 -506.203125 381.460938 -504 382.796875 -501.59375 C 384.398438 -498.664062 385.398438 -494.332031 385.796875 -488.59375 C 386.203125 -482.863281 385.738281 -476.929688 384.40625 -470.796875 C 383.863281 -468.128906 383.457031 -465.59375 383.1875 -463.1875 C 382.925781 -460.789062 382.796875 -459.195312 382.796875 -458.40625 C 382.796875 -457.332031 382.53125 -455.726562 382 -453.59375 C 381.46875 -451.46875 380.9375 -449.335938 380.40625 -447.203125 C 379.863281 -445.066406 378.726562 -440.597656 377 -433.796875 C 375.269531 -426.992188 373.46875 -419.863281 371.59375 -412.40625 C 369.195312 -403.070312 367.265625 -395.738281 365.796875 -390.40625 C 364.328125 -385.070312 362.859375 -379.800781 361.390625 -374.59375 C 359.929688 -369.394531 357.867188 -362.394531 355.203125 -353.59375 C 353.335938 -346.925781 351.070312 -338.59375 348.40625 -328.59375 C 345.738281 -318.59375 342.9375 -308.0625 340 -297 C 337.0625 -285.9375 334.191406 -275.003906 331.390625 -264.203125 C 328.597656 -253.398438 326.132812 -243.734375 324 -235.203125 C 321.863281 -226.671875 320.265625 -220.132812 319.203125 -215.59375 C 318.128906 -211.332031 316.925781 -206.265625 315.59375 -200.390625 C 314.257812 -194.523438 312.925781 -189.328125 311.59375 -184.796875 C 309.726562 -176.796875 307.796875 -168.53125 305.796875 -160 C 303.796875 -151.46875 302.128906 -144.203125 300.796875 -138.203125 C 299.460938 -132.203125 298.664062 -128.800781 298.40625 -128 C 298.132812 -127.46875 297.929688 -126.800781 297.796875 -126 C 297.660156 -125.195312 297.328125 -124.53125 296.796875 -124 C 296.265625 -122.9375 296 -121.738281 296 -120.40625 C 296.269531 -120.132812 296.003906 -117.929688 295.203125 -113.796875 C 294.398438 -109.660156 293.46875 -104.925781 292.40625 -99.59375 C 288.9375 -84.394531 286.664062 -72.59375 285.59375 -64.1875 C 284.53125 -55.789062 284 -47.328125 284 -38.796875 C 284 -30.535156 284.398438 -23.40625 285.203125 -17.40625 C 286.003906 -11.40625 286.9375 -8.40625 288 -8.40625 C 288.800781 -8.40625 289.734375 -7.335938 290.796875 -5.203125 C 291.066406 -4.398438 291.398438 -3.460938 291.796875 -2.390625 C 292.203125 -1.328125 292.535156 -0.53125 292.796875 0 C 293.597656 1.332031 294 2.929688 294 4.796875 C 294 6.660156 293.597656 7.863281 292.796875 8.40625 C 291.992188 9.195312 289.863281 9.59375 286.40625 9.59375 C 283.738281 9.332031 280.46875 7.867188 276.59375 5.203125 C 272.726562 2.535156 269.0625 -0.664062 265.59375 -4.40625 C 264 -6.53125 263 -8.0625 262.59375 -9 C 262.195312 -9.9375 262 -11.335938 262 -13.203125 C 262.269531 -13.734375 262.132812 -15 261.59375 -17 C 261.0625 -19 260.394531 -21.066406 259.59375 -23.203125 C 257.726562 -29.867188 256.992188 -38.800781 257.390625 -50 C 257.796875 -61.195312 259.597656 -75.660156 262.796875 -93.390625 C 265.992188 -111.128906 270.53125 -132.929688 276.40625 -158.796875 C 277.195312 -162.265625 278.125 -166.664062 279.1875 -172 C 280.257812 -177.332031 281.332031 -182 282.40625 -186 C 283.195312 -190 284.0625 -193.664062 285 -197 C 285.9375 -200.332031 286.535156 -202.398438 286.796875 -203.203125 C 288.128906 -204.796875 288.265625 -205.863281 287.203125 -206.40625 C 286.671875 -206.9375 283.800781 -207.203125 278.59375 -207.203125 C 273.394531 -207.203125 267.925781 -207.132812 262.1875 -207 C 256.457031 -206.863281 252.257812 -206.53125 249.59375 -206 C 236 -203.601562 229.203125 -203.335938 229.203125 -205.203125 C 229.203125 -206.265625 228.800781 -206.796875 228 -206.796875 C 227.46875 -206.796875 227.203125 -206.394531 227.203125 -205.59375 C 227.203125 -203.195312 222.800781 -201.597656 214 -200.796875 C 212.132812 -200.535156 209.734375 -200.132812 206.796875 -199.59375 C 203.867188 -199.0625 201.335938 -198.53125 199.203125 -198 Z M 275.203125 -218.40625 C 277.335938 -218.40625 277.867188 -218.671875 276.796875 -219.203125 C 274.929688 -219.203125 273.734375 -219.066406 273.203125 -218.796875 C 272.929688 -218.796875 272.992188 -218.726562 273.390625 -218.59375 C 273.796875 -218.46875 274.398438 -218.40625 275.203125 -218.40625 Z M 288.40625 -186 C 288.132812 -185.46875 287.863281 -184.800781 287.59375 -184 C 287.332031 -183.195312 287.203125 -182.53125 287.203125 -182 C 287.203125 -181.195312 287.601562 -181.332031 288.40625 -182.40625 C 288.9375 -184 289.203125 -185.332031 289.203125 -186.40625 C 289.203125 -187.738281 288.9375 -187.601562 288.40625 -186 Z M 268 -46.40625 C 268.53125 -50.132812 269.128906 -55.195312 269.796875 -61.59375 C 270.460938 -68 271.332031 -73.867188 272.40625 -79.203125 C 274.269531 -90.398438 276.664062 -103.195312 279.59375 -117.59375 C 282.53125 -132 285.597656 -146.066406 288.796875 -159.796875 C 291.992188 -173.535156 294.796875 -184.9375 297.203125 -194 C 297.734375 -196.132812 297.863281 -197.46875 297.59375 -198 C 297.332031 -198.53125 296.132812 -198.664062 294 -198.40625 C 292.9375 -198.132812 292.203125 -197.796875 291.796875 -197.390625 C 291.398438 -196.992188 291.203125 -195.726562 291.203125 -193.59375 C 291.203125 -189.863281 290.867188 -186.398438 290.203125 -183.203125 C 289.535156 -180.003906 288.800781 -178.40625 288 -178.40625 C 287.195312 -178.40625 286.0625 -175.671875 284.59375 -170.203125 C 283.132812 -164.734375 281.738281 -158.664062 280.40625 -152 C 279.863281 -148.53125 279.0625 -143.992188 278 -138.390625 C 276.9375 -132.796875 275.738281 -127.128906 274.40625 -121.390625 C 273.070312 -115.660156 271.867188 -110.664062 270.796875 -106.40625 C 269.203125 -100.53125 268.269531 -96.59375 268 -94.59375 C 267.726562 -92.59375 267.992188 -91.328125 268.796875 -90.796875 C 269.867188 -90.535156 270.46875 -89.601562 270.59375 -88 C 270.726562 -86.394531 270.394531 -84.925781 269.59375 -83.59375 C 268.800781 -82.53125 268.335938 -82.066406 268.203125 -82.203125 C 268.066406 -82.335938 268 -83.335938 268 -85.203125 C 268 -87.867188 267.734375 -88.9375 267.203125 -88.40625 C 266.398438 -87.601562 265.53125 -84.265625 264.59375 -78.390625 C 263.664062 -72.523438 263.066406 -66.53125 262.796875 -60.40625 C 262.796875 -52.9375 262.929688 -49.867188 263.203125 -51.203125 C 263.460938 -53.066406 263.925781 -54.195312 264.59375 -54.59375 C 265.257812 -55 265.726562 -54.535156 266 -53.203125 C 266.53125 -52.398438 266.53125 -49.863281 266 -45.59375 C 265.726562 -43.726562 265.660156 -41.863281 265.796875 -40 C 265.929688 -38.132812 266.132812 -36.800781 266.40625 -36 C 266.664062 -34.9375 266.925781 -35.132812 267.1875 -36.59375 C 267.457031 -38.0625 267.726562 -41.332031 268 -46.40625 Z M 300.796875 -237.59375 C 301.328125 -235.46875 301.328125 -234.132812 300.796875 -233.59375 C 300.535156 -233.332031 300.269531 -232.800781 300 -232 C 299.726562 -231.195312 299.460938 -230.265625 299.203125 -229.203125 C 299.203125 -228.398438 299 -227.53125 298.59375 -226.59375 C 298.195312 -225.664062 297.734375 -224.9375 297.203125 -224.40625 C 295.867188 -223.601562 295.203125 -222.664062 295.203125 -221.59375 C 295.203125 -221.0625 295.597656 -219.796875 296.390625 -217.796875 C 297.191406 -215.796875 298.0625 -213.863281 299 -212 C 299.9375 -210.132812 300.535156 -209.203125 300.796875 -209.203125 C 301.066406 -209.203125 301.46875 -210.203125 302 -212.203125 C 302.53125 -214.203125 303.0625 -216.535156 303.59375 -219.203125 C 304.132812 -221.867188 304.867188 -225.535156 305.796875 -230.203125 C 306.734375 -234.867188 307.734375 -239.066406 308.796875 -242.796875 C 309.867188 -246.535156 311.003906 -251.203125 312.203125 -256.796875 C 313.398438 -262.398438 314.53125 -267.332031 315.59375 -271.59375 C 316.664062 -275.863281 317.800781 -280.332031 319 -285 C 320.195312 -289.664062 321.195312 -293.195312 322 -295.59375 C 323.0625 -299.332031 324.457031 -304.332031 326.1875 -310.59375 C 327.925781 -316.863281 329.460938 -322.664062 330.796875 -328 C 332.128906 -333.332031 332.664062 -336 332.40625 -336 C 332.132812 -336.269531 331.066406 -333.601562 329.203125 -328 C 328.398438 -325.863281 327.53125 -323.726562 326.59375 -321.59375 C 325.664062 -319.46875 324.9375 -318.003906 324.40625 -317.203125 C 323.070312 -315.335938 322.40625 -313.867188 322.40625 -312.796875 C 322.40625 -312.265625 321.867188 -310 320.796875 -306 C 319.734375 -302 318.398438 -297.46875 316.796875 -292.40625 C 315.203125 -287.332031 313.867188 -282.796875 312.796875 -278.796875 C 311.734375 -274.796875 311.203125 -272.53125 311.203125 -272 C 311.203125 -270.664062 310.664062 -269.195312 309.59375 -267.59375 C 307.195312 -264.394531 305.597656 -259.332031 304.796875 -252.40625 C 304.265625 -248.9375 303.597656 -246.9375 302.796875 -246.40625 C 301.992188 -246.132812 301.863281 -245.332031 302.40625 -244 C 303.195312 -242.664062 302.796875 -241.734375 301.203125 -241.203125 C 300.128906 -240.671875 299.992188 -239.46875 300.796875 -237.59375 Z M 334.796875 -324 C 334.796875 -325.332031 334.257812 -324.929688 333.1875 -322.796875 C 332.125 -320.660156 331.59375 -318.796875 331.59375 -317.203125 C 331.59375 -315.335938 330.796875 -312.800781 329.203125 -309.59375 C 327.867188 -306.925781 327.203125 -304.53125 327.203125 -302.40625 C 326.929688 -299.738281 327.328125 -299.40625 328.390625 -301.40625 C 329.460938 -303.40625 330.664062 -306.9375 332 -312 C 333.863281 -318.664062 334.796875 -322.664062 334.796875 -324 Z M 311.59375 -233.203125 C 312.925781 -235.335938 313.328125 -236.671875 312.796875 -237.203125 C 312.535156 -237.460938 312.40625 -237.195312 312.40625 -236.40625 C 312.40625 -236.132812 312.269531 -235.929688 312 -235.796875 C 311.726562 -235.660156 311.460938 -235.726562 311.203125 -236 C 310.398438 -236.53125 310 -235.597656 310 -233.203125 L 310 -230.40625 Z M 291.203125 -120 C 292.535156 -126.9375 293.664062 -132.867188 294.59375 -137.796875 C 295.53125 -142.734375 295.863281 -145.332031 295.59375 -145.59375 C 294 -147.195312 292.664062 -142.132812 291.59375 -130.40625 C 291.59375 -129.863281 291.457031 -129.257812 291.1875 -128.59375 C 290.925781 -127.925781 290.796875 -127.59375 290.796875 -127.59375 C 290.535156 -127.332031 290.269531 -126.46875 290 -125 C 289.726562 -123.53125 289.460938 -121.726562 289.203125 -119.59375 C 288.929688 -116.394531 288.394531 -113.660156 287.59375 -111.390625 C 286.800781 -109.128906 286.003906 -108 285.203125 -108 C 285.203125 -108 285.203125 -109.597656 285.203125 -112.796875 C 286.003906 -115.734375 285.867188 -117.066406 284.796875 -116.796875 C 284.265625 -116.265625 284 -116.664062 284 -118 C 284.53125 -119.601562 285.195312 -120.132812 286 -119.59375 C 286.800781 -119.59375 287.203125 -119.925781 287.203125 -120.59375 C 287.203125 -121.257812 286.800781 -121.726562 286 -122 C 285.46875 -122.53125 285.867188 -125.332031 287.203125 -130.40625 C 288.535156 -136.53125 289.398438 -140.59375 289.796875 -142.59375 C 290.203125 -144.59375 290.132812 -145.59375 289.59375 -145.59375 C 289.0625 -145.59375 288.59375 -144.726562 288.1875 -143 C 287.789062 -141.269531 286.53125 -135.203125 284.40625 -124.796875 C 283.601562 -120.535156 282.867188 -116.40625 282.203125 -112.40625 C 281.535156 -108.40625 280.9375 -105.867188 280.40625 -104.796875 C 278.800781 -98.660156 277.265625 -90.992188 275.796875 -81.796875 C 274.328125 -72.597656 273.191406 -63.734375 272.390625 -55.203125 C 271.597656 -46.671875 271.332031 -40.132812 271.59375 -35.59375 C 272.132812 -31.332031 272.800781 -27.203125 273.59375 -23.203125 C 274.394531 -19.203125 275.0625 -17.332031 275.59375 -17.59375 C 275.59375 -17.863281 275.523438 -18.863281 275.390625 -20.59375 C 275.265625 -22.332031 274.9375 -24.269531 274.40625 -26.40625 C 274.132812 -29.601562 274 -32.46875 274 -35 C 274 -37.53125 274.265625 -40.796875 274.796875 -44.796875 C 275.328125 -47.734375 275.660156 -50.734375 275.796875 -53.796875 C 275.929688 -56.867188 276 -58.9375 276 -60 C 276 -63.46875 276.398438 -65.332031 277.203125 -65.59375 C 277.734375 -66.132812 278 -65.46875 278 -63.59375 C 278 -61.195312 278.332031 -61.128906 279 -63.390625 C 279.664062 -65.660156 280.800781 -70.796875 282.40625 -78.796875 C 283.46875 -83.328125 284.863281 -89.660156 286.59375 -97.796875 C 288.332031 -105.929688 289.867188 -113.332031 291.203125 -120 Z M 328 -276.796875 C 333.332031 -296.535156 336 -307.203125 336 -308.796875 C 336 -309.867188 335.460938 -309.269531 334.390625 -307 C 333.328125 -304.726562 332.796875 -302.925781 332.796875 -301.59375 C 332.796875 -300 332.394531 -298.9375 331.59375 -298.40625 C 331.0625 -297.070312 330.53125 -295.601562 330 -294 C 329.726562 -292.9375 329.394531 -291.535156 329 -289.796875 C 328.601562 -288.066406 328.132812 -286.398438 327.59375 -284.796875 C 326.800781 -282.128906 325.671875 -277.53125 324.203125 -271 C 322.734375 -264.46875 321.597656 -259.066406 320.796875 -254.796875 C 320.265625 -252.398438 319.734375 -251.46875 319.203125 -252 C 318.398438 -252.53125 318.265625 -254.394531 318.796875 -257.59375 C 319.328125 -260.800781 320.53125 -266.671875 322.40625 -275.203125 C 325.070312 -285.597656 326.46875 -291.460938 326.59375 -292.796875 C 326.726562 -294.128906 326.53125 -294.394531 326 -293.59375 C 325.195312 -292.800781 324.0625 -289.867188 322.59375 -284.796875 C 321.132812 -279.734375 320.132812 -275.332031 319.59375 -271.59375 C 319.332031 -270.257812 319 -268.789062 318.59375 -267.1875 C 318.195312 -265.59375 317.734375 -264.265625 317.203125 -263.203125 C 316.929688 -262.128906 316.59375 -260.859375 316.1875 -259.390625 C 315.789062 -257.929688 315.460938 -256.535156 315.203125 -255.203125 C 314.929688 -254.128906 314.726562 -252.523438 314.59375 -250.390625 C 314.46875 -248.265625 314.269531 -246.269531 314 -244.40625 C 313.46875 -241.195312 313.535156 -239.394531 314.203125 -239 C 314.867188 -238.601562 315.601562 -240.003906 316.40625 -243.203125 C 316.40625 -244.265625 316.601562 -245.128906 317 -245.796875 C 317.394531 -246.460938 317.726562 -246.929688 318 -247.203125 C 319.332031 -248.003906 319.195312 -245.867188 317.59375 -240.796875 C 316.257812 -237.597656 315.59375 -235.066406 315.59375 -233.203125 C 315.0625 -231.066406 314 -230 312.40625 -230 C 311.070312 -229.726562 309.738281 -228.257812 308.40625 -225.59375 C 307.070312 -222.925781 306.671875 -220.925781 307.203125 -219.59375 C 307.734375 -218.53125 307.066406 -216.664062 305.203125 -214 C 304.671875 -212.9375 304.132812 -211.601562 303.59375 -210 C 303.0625 -208.394531 302.796875 -206.925781 302.796875 -205.59375 C 302.796875 -202.394531 302.53125 -200.53125 302 -200 C 301.726562 -199.726562 301.394531 -198.660156 301 -196.796875 C 300.601562 -194.929688 300.269531 -192.664062 300 -190 C 299.726562 -186.53125 299.59375 -184.128906 299.59375 -182.796875 C 299.59375 -181.460938 299.863281 -180.796875 300.40625 -180.796875 C 302.269531 -180.796875 302.398438 -178 300.796875 -172.40625 C 300.535156 -169.46875 300.132812 -169.195312 299.59375 -171.59375 C 299.0625 -173.46875 298.265625 -174.003906 297.203125 -173.203125 C 296.128906 -172.929688 295.726562 -172.128906 296 -170.796875 C 296.269531 -170.535156 296.40625 -170.269531 296.40625 -170 C 296.40625 -169.726562 296.132812 -169.726562 295.59375 -170 C 294.800781 -170 294.40625 -168.800781 294.40625 -166.40625 C 294.40625 -163.738281 293.601562 -160.800781 292 -157.59375 C 288.800781 -150.925781 288 -147.726562 289.59375 -148 C 290.664062 -148.53125 291.601562 -150.394531 292.40625 -153.59375 C 292.9375 -156.53125 293.929688 -159.398438 295.390625 -162.203125 C 296.859375 -165.003906 297.726562 -166.132812 298 -165.59375 C 298.269531 -165.59375 298.269531 -164.859375 298 -163.390625 C 297.726562 -161.929688 297.328125 -160.132812 296.796875 -158 C 295.734375 -153.726562 295.203125 -150.992188 295.203125 -149.796875 C 295.203125 -148.597656 295.601562 -148 296.40625 -148 C 296.9375 -148 297.929688 -151.066406 299.390625 -157.203125 C 300.859375 -163.335938 303.460938 -174.671875 307.203125 -191.203125 C 308.535156 -197.066406 310.398438 -205.066406 312.796875 -215.203125 C 315.203125 -225.335938 318.132812 -237.335938 321.59375 -251.203125 C 322.132812 -253.867188 323.070312 -257.734375 324.40625 -262.796875 C 325.738281 -267.867188 326.9375 -272.535156 328 -276.796875 Z M 336.796875 -311.203125 C 337.328125 -312.003906 337.328125 -312.800781 336.796875 -313.59375 C 336.265625 -313.59375 336 -313.0625 336 -312 C 336.269531 -310.9375 336.535156 -310.671875 336.796875 -311.203125 Z M 336.796875 -330.40625 C 337.328125 -331.46875 337.328125 -332.265625 336.796875 -332.796875 C 336.265625 -333.328125 336 -332.796875 336 -331.203125 C 336.269531 -330.128906 336.535156 -329.863281 336.796875 -330.40625 Z M 337.203125 -339.59375 C 336.128906 -335.59375 336.128906 -333.992188 337.203125 -334.796875 C 338.003906 -335.597656 338.40625 -336.929688 338.40625 -338.796875 C 338.132812 -340.660156 338 -341.59375 338 -341.59375 C 338 -341.59375 337.734375 -340.925781 337.203125 -339.59375 Z M 347.203125 -349.203125 C 348.003906 -351.335938 348.40625 -352.867188 348.40625 -353.796875 C 348.40625 -354.734375 348.132812 -354.800781 347.59375 -354 C 346.800781 -353.195312 345.867188 -350.53125 344.796875 -346 C 344.265625 -344.132812 343.53125 -341.535156 342.59375 -338.203125 C 341.664062 -334.867188 340.800781 -331.734375 340 -328.796875 C 337.0625 -318.128906 336.257812 -313.460938 337.59375 -314.796875 C 337.863281 -315.066406 338.332031 -316.398438 339 -318.796875 C 339.664062 -321.203125 340.398438 -323.867188 341.203125 -326.796875 C 342.003906 -329.992188 342.800781 -333.0625 343.59375 -336 C 344.394531 -338.9375 344.929688 -340.9375 345.203125 -342 C 345.460938 -343.332031 345.789062 -344.664062 346.1875 -346 C 346.59375 -347.332031 346.929688 -348.398438 347.203125 -349.203125 Z M 340.796875 -350 C 339.992188 -348.664062 339.394531 -347.128906 339 -345.390625 C 338.601562 -343.660156 338.671875 -343.195312 339.203125 -344 C 340.003906 -344.53125 340.671875 -346 341.203125 -348.40625 C 341.460938 -350.269531 341.328125 -350.800781 340.796875 -350 Z M 342 -355.203125 C 342 -354.128906 342.066406 -353.59375 342.203125 -353.59375 C 342.335938 -353.59375 342.535156 -353.863281 342.796875 -354.40625 C 343.597656 -355.738281 344 -357.070312 344 -358.40625 C 344 -359.46875 343.929688 -360 343.796875 -360 C 343.660156 -360 343.328125 -359.734375 342.796875 -359.203125 C 342.265625 -357.597656 342 -356.265625 342 -355.203125 Z M 346.40625 -370.40625 C 345.863281 -370.40625 345.394531 -369.738281 345 -368.40625 C 344.601562 -367.070312 344.535156 -365.867188 344.796875 -364.796875 C 345.066406 -363.734375 345.601562 -363.867188 346.40625 -365.203125 C 346.9375 -366.796875 347.203125 -368.128906 347.203125 -369.203125 C 347.734375 -370.003906 347.46875 -370.40625 346.40625 -370.40625 Z M 349.203125 -356.796875 C 349.734375 -357.597656 349.734375 -358.265625 349.203125 -358.796875 C 348.929688 -359.066406 348.796875 -358.535156 348.796875 -357.203125 C 348.796875 -356.128906 348.929688 -355.992188 349.203125 -356.796875 Z M 351.59375 -364.796875 C 352.664062 -367.992188 352.9375 -369.863281 352.40625 -370.40625 C 352.132812 -370.9375 351.597656 -370 350.796875 -367.59375 C 349.992188 -365.195312 349.59375 -363.332031 349.59375 -362 C 349.59375 -360.394531 350.257812 -361.328125 351.59375 -364.796875 Z M 356 -379.59375 C 356.800781 -381.726562 357.398438 -383.660156 357.796875 -385.390625 C 358.203125 -387.128906 358.40625 -388.132812 358.40625 -388.40625 C 358.132812 -388.664062 357.597656 -387.726562 356.796875 -385.59375 C 355.992188 -383.46875 355.191406 -381.132812 354.390625 -378.59375 C 353.597656 -376.0625 353.203125 -374.394531 353.203125 -373.59375 C 353.203125 -372 354.132812 -374 356 -379.59375 Z M 353.59375 -389.59375 C 354.925781 -394.132812 356.125 -398.132812 357.1875 -401.59375 C 358.257812 -405.0625 358.664062 -406.929688 358.40625 -407.203125 C 358.132812 -407.734375 357.398438 -406.664062 356.203125 -404 C 355.003906 -401.332031 354.003906 -398.53125 353.203125 -395.59375 C 352.128906 -392.132812 350.660156 -387.738281 348.796875 -382.40625 C 347.460938 -378.132812 346.660156 -375.398438 346.390625 -374.203125 C 346.128906 -373.003906 346.53125 -372.535156 347.59375 -372.796875 C 348.132812 -373.066406 349.003906 -374.867188 350.203125 -378.203125 C 351.398438 -381.535156 352.53125 -385.332031 353.59375 -389.59375 Z M 95.59375 -177.59375 C 95.0625 -177.59375 93.53125 -175.257812 91 -170.59375 C 88.46875 -165.925781 85.332031 -160.125 81.59375 -153.1875 C 77.863281 -146.257812 74.195312 -139.195312 70.59375 -132 C 67 -124.800781 64 -118.664062 61.59375 -113.59375 C 59.195312 -108.53125 58 -105.734375 58 -105.203125 C 58 -103.066406 59.734375 -105.734375 63.203125 -113.203125 C 64.265625 -115.066406 65.394531 -117.265625 66.59375 -119.796875 C 67.800781 -122.328125 68.800781 -124.53125 69.59375 -126.40625 C 70.394531 -128.269531 71.726562 -130.929688 73.59375 -134.390625 C 75.46875 -137.859375 77.203125 -141.195312 78.796875 -144.40625 C 85.734375 -157.738281 90.398438 -166.601562 92.796875 -171 C 95.203125 -175.394531 96.132812 -177.59375 95.59375 -177.59375 Z M 56.796875 -102.40625 C 55.992188 -102.40625 55.59375 -102.003906 55.59375 -101.203125 C 55.59375 -100.671875 55.992188 -100.535156 56.796875 -100.796875 C 57.597656 -101.328125 58 -101.726562 58 -102 C 58 -102.269531 57.597656 -102.40625 56.796875 -102.40625 Z M 50 -88.40625 C 49.195312 -88.132812 48.796875 -87.195312 48.796875 -85.59375 C 48.796875 -84.800781 48.863281 -84.40625 49 -84.40625 C 49.132812 -84.40625 49.46875 -84.800781 50 -85.59375 C 50.269531 -86.132812 50.535156 -86.601562 50.796875 -87 C 51.066406 -87.394531 51.203125 -87.726562 51.203125 -88 C 51.203125 -88.800781 50.800781 -88.9375 50 -88.40625 Z M 44.796875 -66.40625 C 45.066406 -66.664062 46.664062 -69.660156 49.59375 -75.390625 C 52.53125 -81.128906 56 -88 60 -96 C 77.332031 -130.132812 87.066406 -148.535156 89.203125 -151.203125 C 89.734375 -151.734375 90.128906 -152.398438 90.390625 -153.203125 C 90.660156 -154.003906 90.929688 -154.535156 91.203125 -154.796875 C 91.734375 -156.128906 92.398438 -156.796875 93.203125 -156.796875 C 93.734375 -156.796875 94 -157.863281 94 -160 C 94 -161.863281 94.664062 -162.796875 96 -162.796875 C 97.0625 -162.796875 97.59375 -163.597656 97.59375 -165.203125 C 97.59375 -166.003906 97.992188 -167.203125 98.796875 -168.796875 C 99.597656 -170.398438 100.53125 -172 101.59375 -173.59375 C 102.664062 -175.195312 103.597656 -176.664062 104.390625 -178 C 105.191406 -179.332031 105.59375 -180.132812 105.59375 -180.40625 C 105.59375 -180.40625 105.257812 -180.40625 104.59375 -180.40625 C 103.925781 -180.40625 103.195312 -180.132812 102.40625 -179.59375 C 101.332031 -179.332031 99.992188 -178.132812 98.390625 -176 C 96.796875 -173.863281 94.53125 -169.726562 91.59375 -163.59375 C 87.0625 -155.0625 82.460938 -146.128906 77.796875 -136.796875 C 73.128906 -127.460938 69.0625 -119.195312 65.59375 -112 C 62.132812 -104.800781 59.867188 -100 58.796875 -97.59375 C 56.398438 -93.332031 54.9375 -91.203125 54.40625 -91.203125 C 53.601562 -91.203125 53.601562 -92.132812 54.40625 -94 C 55.46875 -96.394531 55.863281 -97.789062 55.59375 -98.1875 C 55.332031 -98.59375 54.664062 -97.726562 53.59375 -95.59375 C 52 -93.195312 51.734375 -91.597656 52.796875 -90.796875 C 54.128906 -90.265625 54.59375 -89.332031 54.1875 -88 C 53.789062 -86.664062 52.128906 -83.066406 49.203125 -77.203125 C 46.796875 -72.128906 45.328125 -68.925781 44.796875 -67.59375 C 44.265625 -66.257812 44.265625 -65.863281 44.796875 -66.40625 Z M 78.40625 -124.796875 C 78.40625 -126.660156 78.003906 -126.796875 77.203125 -125.203125 C 75.335938 -122.535156 75.335938 -121.601562 77.203125 -122.40625 C 78.003906 -123.195312 78.40625 -123.992188 78.40625 -124.796875 Z M 88.796875 -132 C 89.328125 -132 89.59375 -132.398438 89.59375 -133.203125 C 89.59375 -134.003906 89.195312 -134.40625 88.40625 -134.40625 C 88.132812 -134.40625 86.863281 -132.601562 84.59375 -129 C 82.332031 -125.394531 80.132812 -121.59375 78 -117.59375 C 75.863281 -113.59375 74.53125 -110.660156 74 -108.796875 C 73.46875 -107.734375 73.597656 -107.734375 74.390625 -108.796875 C 75.191406 -109.867188 76.257812 -111.738281 77.59375 -114.40625 C 80.257812 -118.9375 82.726562 -123 85 -126.59375 C 87.269531 -130.195312 88.535156 -132 88.796875 -132 Z M 92.796875 -139.59375 C 94.128906 -142 94.925781 -143.398438 95.1875 -143.796875 C 95.457031 -144.203125 94.925781 -144.40625 93.59375 -144.40625 C 92.800781 -144.40625 91.738281 -143.46875 90.40625 -141.59375 C 89.070312 -139.726562 88.40625 -138.128906 88.40625 -136.796875 C 88.40625 -135.460938 88.867188 -135.128906 89.796875 -135.796875 C 90.734375 -136.460938 91.734375 -137.726562 92.796875 -139.59375 Z M 109.59375 -173.203125 C 112.800781 -178.796875 114.40625 -181.992188 114.40625 -182.796875 C 113.332031 -183.328125 111.726562 -181.59375 109.59375 -177.59375 C 109.0625 -176.53125 107.925781 -174.398438 106.1875 -171.203125 C 104.457031 -168.003906 102.660156 -164.800781 100.796875 -161.59375 C 98.929688 -158.132812 97.332031 -155.203125 96 -152.796875 C 94.664062 -150.398438 94 -148.9375 94 -148.40625 C 94 -147.601562 94.53125 -147.46875 95.59375 -148 C 96.664062 -148.53125 97.734375 -149.597656 98.796875 -151.203125 C 99.328125 -152.265625 99.992188 -153.59375 100.796875 -155.1875 C 101.597656 -156.789062 102.265625 -158.128906 102.796875 -159.203125 C 103.328125 -160.535156 104.257812 -162.535156 105.59375 -165.203125 C 106.925781 -167.867188 108.257812 -170.535156 109.59375 -173.203125 Z M 110.796875 -206 C 109.460938 -203.332031 109.328125 -202.332031 110.390625 -203 C 111.460938 -203.664062 112.800781 -205.46875 114.40625 -208.40625 C 115.195312 -209.738281 116.394531 -211.800781 118 -214.59375 C 119.601562 -217.394531 121.070312 -220.128906 122.40625 -222.796875 C 124 -225.992188 126.128906 -229.789062 128.796875 -234.1875 C 131.460938 -238.59375 133.992188 -242.660156 136.390625 -246.390625 C 138.796875 -250.128906 140.265625 -252.132812 140.796875 -252.40625 C 141.597656 -253.195312 142.132812 -254.257812 142.40625 -255.59375 C 144 -260.664062 141.726562 -258.398438 135.59375 -248.796875 C 134.257812 -246.128906 132.859375 -243.59375 131.390625 -241.1875 C 129.929688 -238.789062 128.9375 -237.195312 128.40625 -236.40625 C 127.601562 -235.332031 125.929688 -232.660156 123.390625 -228.390625 C 120.859375 -224.128906 118.394531 -219.796875 116 -215.390625 C 113.601562 -210.992188 111.867188 -207.863281 110.796875 -206 Z M 122.40625 -210 C 123.195312 -211.332031 124.191406 -212.863281 125.390625 -214.59375 C 126.597656 -216.332031 127.601562 -217.734375 128.40625 -218.796875 C 129.195312 -220.128906 130.191406 -221.796875 131.390625 -223.796875 C 132.597656 -225.796875 133.601562 -227.597656 134.40625 -229.203125 C 136.269531 -232.398438 138.332031 -235.863281 140.59375 -239.59375 C 142.863281 -243.332031 146 -248.332031 150 -254.59375 C 154 -260.863281 159.46875 -269.195312 166.40625 -279.59375 C 169.332031 -283.863281 171.796875 -287.734375 173.796875 -291.203125 C 175.796875 -294.671875 176.929688 -296.535156 177.203125 -296.796875 C 177.734375 -297.867188 179.066406 -298.671875 181.203125 -299.203125 C 183.335938 -299.460938 186.003906 -302.128906 189.203125 -307.203125 C 196.929688 -318.929688 203.460938 -328.726562 208.796875 -336.59375 C 214.128906 -344.46875 218 -350.003906 220.40625 -353.203125 C 224.132812 -357.460938 226 -360.128906 226 -361.203125 C 226 -362.265625 227.066406 -363.460938 229.203125 -364.796875 C 231.066406 -366.128906 233.066406 -368.664062 235.203125 -372.40625 C 236.535156 -376.132812 237.867188 -378.265625 239.203125 -378.796875 C 240.265625 -379.328125 240.796875 -380.128906 240.796875 -381.203125 C 240.796875 -381.460938 241.328125 -382.328125 242.390625 -383.796875 C 243.460938 -385.265625 244.664062 -386.929688 246 -388.796875 C 247.601562 -390.398438 249.269531 -392.398438 251 -394.796875 C 252.726562 -397.203125 253.992188 -399.203125 254.796875 -400.796875 C 256.660156 -404.535156 258.394531 -407.203125 260 -408.796875 C 260.53125 -409.328125 261.128906 -410.0625 261.796875 -411 C 262.460938 -411.9375 263.0625 -412.800781 263.59375 -413.59375 C 264.664062 -415.195312 268.664062 -420.128906 275.59375 -428.390625 C 282.53125 -436.660156 290.53125 -446 299.59375 -456.40625 C 305.726562 -463.601562 312.128906 -470.597656 318.796875 -477.390625 C 325.460938 -484.191406 331.925781 -490.257812 338.1875 -495.59375 C 344.457031 -500.925781 349.726562 -504.925781 354 -507.59375 C 356.9375 -509.46875 357.671875 -510.335938 356.203125 -510.203125 C 354.734375 -510.066406 352.265625 -508.929688 348.796875 -506.796875 C 344.535156 -504.398438 342.132812 -503.203125 341.59375 -503.203125 C 341.332031 -503.203125 341.265625 -504 341.390625 -505.59375 C 341.523438 -507.195312 341.863281 -508.265625 342.40625 -508.796875 C 342.9375 -509.328125 342.9375 -509.0625 342.40625 -508 C 341.863281 -506.9375 341.925781 -506.535156 342.59375 -506.796875 C 343.257812 -507.066406 345.195312 -508.132812 348.40625 -510 C 350 -510.800781 351.59375 -511.597656 353.1875 -512.390625 C 354.789062 -513.191406 355.863281 -513.726562 356.40625 -514 C 357.738281 -514.53125 358.46875 -515.128906 358.59375 -515.796875 C 358.726562 -516.460938 358 -516.796875 356.40625 -516.796875 C 354.800781 -516.796875 352 -515.660156 348 -513.390625 C 344 -511.128906 340.460938 -508.796875 337.390625 -506.390625 C 334.328125 -503.992188 332.929688 -502.265625 333.203125 -501.203125 C 333.460938 -500.398438 332.992188 -499.664062 331.796875 -499 C 330.597656 -498.332031 329.46875 -498.132812 328.40625 -498.40625 C 328.132812 -498.664062 326.128906 -497.0625 322.390625 -493.59375 C 318.660156 -490.132812 314.257812 -485.738281 309.1875 -480.40625 C 304.125 -475.070312 299.191406 -469.800781 294.390625 -464.59375 C 289.597656 -459.394531 285.867188 -455.0625 283.203125 -451.59375 C 280.796875 -448.664062 278.660156 -446.132812 276.796875 -444 C 274.929688 -441.863281 273.863281 -440.796875 273.59375 -440.796875 C 273.332031 -440.796875 272.597656 -440.128906 271.390625 -438.796875 C 270.191406 -437.460938 268.925781 -435.863281 267.59375 -434 C 266.53125 -432.132812 264 -428.597656 260 -423.390625 C 256 -418.191406 251.863281 -412.796875 247.59375 -407.203125 C 243.0625 -401.335938 239.53125 -396.535156 237 -392.796875 C 234.46875 -389.066406 233.332031 -386.9375 233.59375 -386.40625 C 233.863281 -385.332031 233.597656 -385.0625 232.796875 -385.59375 C 231.992188 -386.394531 231.0625 -385.863281 230 -384 C 229.46875 -383.195312 228.46875 -381.796875 227 -379.796875 C 225.53125 -377.796875 224 -375.726562 222.40625 -373.59375 C 220.800781 -371.46875 219.664062 -369.671875 219 -368.203125 C 218.332031 -366.734375 218.132812 -366.132812 218.40625 -366.40625 C 219.738281 -366.9375 220.40625 -366.535156 220.40625 -365.203125 C 220.40625 -364.128906 219.867188 -363.59375 218.796875 -363.59375 C 218.535156 -363.59375 218.132812 -363.523438 217.59375 -363.390625 C 217.0625 -363.265625 216.664062 -363.203125 216.40625 -363.203125 C 213.738281 -362.671875 209.867188 -358.003906 204.796875 -349.203125 C 202.929688 -346.265625 200.664062 -342.726562 198 -338.59375 C 195.332031 -334.46875 192.796875 -330.671875 190.390625 -327.203125 C 187.992188 -323.734375 186.265625 -321.46875 185.203125 -320.40625 C 184.398438 -319.070312 183.195312 -318.40625 181.59375 -318.40625 C 180.53125 -318.40625 178.734375 -317.003906 176.203125 -314.203125 C 173.671875 -311.398438 172.40625 -309.46875 172.40625 -308.40625 C 172.40625 -308.132812 171.601562 -306.734375 170 -304.203125 C 168.394531 -301.671875 166.59375 -298.867188 164.59375 -295.796875 C 162.59375 -292.734375 160.789062 -290 159.1875 -287.59375 C 157.59375 -285.195312 156.664062 -284 156.40625 -284 C 155.863281 -284 154.789062 -282.863281 153.1875 -280.59375 C 151.59375 -278.332031 150.0625 -275.800781 148.59375 -273 C 147.132812 -270.195312 146.003906 -267.863281 145.203125 -266 C 143.597656 -261.726562 143.394531 -259.859375 144.59375 -260.390625 C 145.800781 -260.929688 147.601562 -263.601562 150 -268.40625 C 154.800781 -277.738281 157.601562 -281.738281 158.40625 -280.40625 C 158.664062 -280.132812 158.257812 -279 157.1875 -277 C 156.125 -275 154.796875 -272.53125 153.203125 -269.59375 C 151.335938 -266.925781 148.867188 -262.925781 145.796875 -257.59375 C 142.734375 -252.257812 139.734375 -247.328125 136.796875 -242.796875 C 134.128906 -237.992188 131.726562 -233.925781 129.59375 -230.59375 C 127.46875 -227.257812 126.269531 -225.460938 126 -225.203125 C 125.195312 -225.203125 124.796875 -224.664062 124.796875 -223.59375 C 124.796875 -223.332031 124.257812 -222.132812 123.1875 -220 C 122.125 -217.863281 120.925781 -215.597656 119.59375 -213.203125 C 116.394531 -207.597656 114.796875 -204.53125 114.796875 -204 C 114.796875 -203.195312 115.863281 -203.332031 118 -204.40625 C 119.332031 -205.738281 120.800781 -207.601562 122.40625 -210 Z M 312.40625 -462.796875 C 312.40625 -463.867188 310.671875 -462.132812 307.203125 -457.59375 C 306.128906 -456.53125 305.726562 -456.066406 306 -456.203125 C 306.269531 -456.335938 307.070312 -457.070312 308.40625 -458.40625 C 309.46875 -459.46875 310.398438 -460.398438 311.203125 -461.203125 C 312.003906 -462.003906 312.40625 -462.535156 312.40625 -462.796875 Z M 298.40625 -447.203125 C 299.195312 -448.265625 299.59375 -448.796875 299.59375 -448.796875 C 299.59375 -448.796875 299.195312 -448.394531 298.40625 -447.59375 C 297.332031 -447.0625 295.394531 -445.195312 292.59375 -442 C 289.800781 -438.800781 287.335938 -435.800781 285.203125 -433 C 283.066406 -430.195312 282.265625 -428.929688 282.796875 -429.203125 C 283.328125 -429.460938 284.328125 -430.457031 285.796875 -432.1875 C 287.265625 -433.925781 288.929688 -435.726562 290.796875 -437.59375 C 292.398438 -439.726562 294 -441.726562 295.59375 -443.59375 C 297.195312 -445.46875 298.132812 -446.671875 298.40625 -447.203125 Z M 279.59375 -424.40625 C 280.925781 -426.269531 281.328125 -427.203125 280.796875 -427.203125 C 279.992188 -427.203125 278.925781 -426.269531 277.59375 -424.40625 C 276.800781 -422.53125 276.535156 -421.59375 276.796875 -421.59375 C 277.328125 -421.59375 278.257812 -422.53125 279.59375 -424.40625 Z M 242 -374.40625 C 243.0625 -374.9375 243.195312 -374.800781 242.40625 -374 C 242.132812 -373.195312 242.132812 -372.796875 242.40625 -372.796875 C 242.664062 -372.796875 243.726562 -373.992188 245.59375 -376.390625 C 247.46875 -378.796875 249.46875 -381.332031 251.59375 -384 C 253.726562 -386.664062 255.0625 -388.53125 255.59375 -389.59375 C 256.132812 -390.394531 257.132812 -391.925781 258.59375 -394.1875 C 260.0625 -396.457031 261.726562 -398.796875 263.59375 -401.203125 C 267.0625 -405.203125 269.660156 -408.800781 271.390625 -412 C 273.128906 -415.195312 273.734375 -417.195312 273.203125 -418 C 272.929688 -418.269531 271.863281 -416.535156 270 -412.796875 C 268.664062 -409.328125 267.597656 -408.128906 266.796875 -409.203125 C 265.992188 -410.535156 265.726562 -410.269531 266 -408.40625 C 266 -407.070312 265.597656 -406.40625 264.796875 -406.40625 C 263.734375 -406.40625 263.203125 -405.738281 263.203125 -404.40625 C 263.203125 -402.800781 261.601562 -400.398438 258.40625 -397.203125 C 257.070312 -395.867188 255.070312 -393.664062 252.40625 -390.59375 C 249.738281 -387.53125 247.335938 -384.53125 245.203125 -381.59375 C 242.265625 -377.59375 240.328125 -374.789062 239.390625 -373.1875 C 238.460938 -371.59375 238.265625 -370.53125 238.796875 -370 C 239.597656 -369.195312 240.332031 -369.0625 241 -369.59375 C 241.664062 -370.132812 241.734375 -370.9375 241.203125 -372 C 240.671875 -373.0625 240.9375 -373.863281 242 -374.40625 Z M 237.203125 -368.40625 C 237.203125 -369.195312 236.800781 -369.328125 236 -368.796875 C 235.195312 -367.992188 234.796875 -367.328125 234.796875 -366.796875 C 234.796875 -366.535156 234.925781 -366.335938 235.1875 -366.203125 C 235.457031 -366.066406 235.726562 -366.132812 236 -366.40625 C 236.800781 -366.9375 237.203125 -367.601562 237.203125 -368.40625 Z M 130 -209.203125 C 130.269531 -209.734375 131.070312 -211.265625 132.40625 -213.796875 C 133.738281 -216.328125 135.335938 -219.195312 137.203125 -222.40625 C 140.929688 -228.53125 143.128906 -232.523438 143.796875 -234.390625 C 144.460938 -236.265625 143.332031 -234.800781 140.40625 -230 C 139.070312 -228.132812 137.335938 -225.46875 135.203125 -222 C 133.066406 -218.53125 131.195312 -215.328125 129.59375 -212.390625 C 128 -209.460938 127.203125 -207.734375 127.203125 -207.203125 C 127.203125 -206.671875 127.597656 -206.601562 128.390625 -207 C 129.191406 -207.394531 129.726562 -208.128906 130 -209.203125 Z M 158.796875 -212.40625 C 172.929688 -215.070312 187.332031 -217.535156 202 -219.796875 C 216.664062 -222.066406 228.265625 -223.734375 236.796875 -224.796875 C 242.929688 -225.597656 249.332031 -226.066406 256 -226.203125 C 262.664062 -226.335938 268.664062 -226.203125 274 -225.796875 C 279.332031 -225.398438 283.066406 -224.664062 285.203125 -223.59375 C 286.535156 -223.0625 287.664062 -222.59375 288.59375 -222.1875 C 289.53125 -221.789062 290 -221.726562 290 -222 C 290 -222 291.195312 -226.734375 293.59375 -236.203125 C 296 -245.671875 298.9375 -256.9375 302.40625 -270 C 304.800781 -278.800781 307.128906 -287.597656 309.390625 -296.390625 C 311.660156 -305.191406 313.726562 -313.0625 315.59375 -320 C 317.46875 -326.9375 318.800781 -332.003906 319.59375 -335.203125 C 322.257812 -344.535156 325.523438 -356.066406 329.390625 -369.796875 C 333.265625 -383.535156 336.800781 -396.132812 340 -407.59375 C 342.664062 -416.132812 344 -421.867188 344 -424.796875 C 344 -426.660156 344.734375 -430.0625 346.203125 -435 C 347.671875 -439.9375 349.46875 -445.46875 351.59375 -451.59375 C 352.664062 -454.257812 353.800781 -457.394531 355 -461 C 356.195312 -464.601562 357.0625 -467.738281 357.59375 -470.40625 C 358.394531 -473.863281 359.0625 -477.789062 359.59375 -482.1875 C 360.132812 -486.59375 360.46875 -490.460938 360.59375 -493.796875 C 360.726562 -497.128906 360.394531 -498.796875 359.59375 -498.796875 C 359.332031 -498.796875 358.398438 -498 356.796875 -496.40625 C 355.734375 -495.332031 354.800781 -494.660156 354 -494.390625 C 353.195312 -494.128906 353.0625 -494.53125 353.59375 -495.59375 C 354.394531 -496.664062 353.992188 -496.664062 352.390625 -495.59375 C 350.796875 -494.53125 349.332031 -493.195312 348 -491.59375 L 345.59375 -489.203125 L 348.40625 -491.203125 C 350 -492.796875 351.0625 -493.328125 351.59375 -492.796875 C 351.59375 -491.992188 349.992188 -490.257812 346.796875 -487.59375 C 345.203125 -486.53125 343.535156 -485.195312 341.796875 -483.59375 C 340.066406 -482 338.664062 -480.800781 337.59375 -480 C 335.726562 -478.132812 334.53125 -477.332031 334 -477.59375 C 333.195312 -477.59375 332.195312 -477.191406 331 -476.390625 C 329.800781 -475.597656 329.203125 -474.9375 329.203125 -474.40625 C 329.203125 -473.332031 328.800781 -472.796875 328 -472.796875 C 326.9375 -472.796875 325.335938 -471.726562 323.203125 -469.59375 C 321.066406 -467.46875 320 -465.738281 320 -464.40625 C 320 -463.332031 319.53125 -462.328125 318.59375 -461.390625 C 317.664062 -460.460938 316.9375 -460.265625 316.40625 -460.796875 C 316.132812 -461.066406 316 -461.132812 316 -461 C 316 -460.863281 316.132812 -460.53125 316.40625 -460 C 316.664062 -458.664062 316 -457.863281 314.40625 -457.59375 C 313.070312 -457.59375 312.003906 -456.925781 311.203125 -455.59375 C 310.671875 -454.53125 311.070312 -454.398438 312.40625 -455.203125 C 313.46875 -455.734375 313.195312 -455.195312 311.59375 -453.59375 C 311.0625 -452.257812 310.128906 -451.59375 308.796875 -451.59375 C 308.265625 -452.132812 306.597656 -450.9375 303.796875 -448 C 300.992188 -445.0625 299.328125 -442.925781 298.796875 -441.59375 C 298.535156 -441.332031 298.738281 -441.46875 299.40625 -442 C 300.070312 -442.53125 300.800781 -443.332031 301.59375 -444.40625 C 304.257812 -447.070312 305.726562 -448.132812 306 -447.59375 C 306.269531 -447.332031 305.335938 -445.929688 303.203125 -443.390625 C 301.066406 -440.859375 298.796875 -438.328125 296.390625 -435.796875 C 293.992188 -433.265625 292.394531 -431.863281 291.59375 -431.59375 C 290.257812 -431.0625 289.59375 -430.394531 289.59375 -429.59375 C 289.59375 -429.332031 288.992188 -428.265625 287.796875 -426.390625 C 286.597656 -424.523438 285.195312 -422.53125 283.59375 -420.40625 C 278 -413.195312 273.398438 -407.257812 269.796875 -402.59375 C 266.203125 -397.925781 262.800781 -393.328125 259.59375 -388.796875 C 256.394531 -384.265625 252.53125 -378.929688 248 -372.796875 C 243.46875 -366.660156 237.601562 -358.394531 230.40625 -348 C 226.9375 -343.195312 224 -339.0625 221.59375 -335.59375 C 219.195312 -332.132812 218 -330.269531 218 -330 C 218 -329.726562 217.195312 -328.394531 215.59375 -326 C 214 -323.601562 212.398438 -321.335938 210.796875 -319.203125 C 209.203125 -317.066406 208.132812 -316 207.59375 -316 C 207.0625 -316 206.796875 -316.332031 206.796875 -317 C 206.796875 -317.664062 207.332031 -318.929688 208.40625 -320.796875 C 208.9375 -321.867188 209.398438 -323.070312 209.796875 -324.40625 C 210.203125 -325.738281 210.535156 -326.9375 210.796875 -328 C 210.796875 -329.601562 211.660156 -331.800781 213.390625 -334.59375 C 215.128906 -337.394531 217.066406 -339.992188 219.203125 -342.390625 C 221.335938 -344.796875 222.800781 -346 223.59375 -346 C 224.132812 -346 225.40625 -347.265625 227.40625 -349.796875 C 229.40625 -352.328125 231.335938 -354.992188 233.203125 -357.796875 C 235.066406 -360.597656 236 -362.265625 236 -362.796875 C 236 -363.328125 235.332031 -363.59375 234 -363.59375 C 233.195312 -363.59375 230.925781 -361.191406 227.1875 -356.390625 C 223.457031 -351.597656 218.925781 -345.398438 213.59375 -337.796875 C 208.257812 -330.203125 202.796875 -322.003906 197.203125 -313.203125 C 191.867188 -304.671875 188.398438 -299.40625 186.796875 -297.40625 C 185.203125 -295.40625 183.601562 -294.269531 182 -294 C 180.9375 -293.726562 179.40625 -292.328125 177.40625 -289.796875 C 175.40625 -287.265625 172.40625 -282.929688 168.40625 -276.796875 C 162.53125 -267.734375 157.394531 -259.46875 153 -252 C 148.601562 -244.53125 146.535156 -240.664062 146.796875 -240.40625 C 147.066406 -240.132812 148.535156 -242.066406 151.203125 -246.203125 C 153.867188 -250.335938 157.066406 -255.335938 160.796875 -261.203125 C 168.535156 -273.734375 173.601562 -281.664062 176 -285 C 178.394531 -288.332031 179.992188 -289.734375 180.796875 -289.203125 C 181.066406 -288.929688 182 -289.53125 183.59375 -291 C 185.195312 -292.46875 186.796875 -294.066406 188.390625 -295.796875 C 189.992188 -297.535156 190.796875 -298.671875 190.796875 -299.203125 C 190.796875 -299.734375 191.394531 -300.929688 192.59375 -302.796875 C 193.800781 -304.660156 195.132812 -306.523438 196.59375 -308.390625 C 198.0625 -310.265625 198.929688 -311.203125 199.203125 -311.203125 C 200.003906 -311.203125 200.003906 -310.265625 199.203125 -308.390625 C 198.398438 -306.523438 196.132812 -302.925781 192.40625 -297.59375 C 187.070312 -289.863281 183.601562 -285.863281 182 -285.59375 C 180.132812 -285.332031 178.332031 -283.800781 176.59375 -281 C 174.863281 -278.195312 174.132812 -276 174.40625 -274.40625 C 174.9375 -272.800781 172.664062 -268.132812 167.59375 -260.40625 C 163.332031 -253.738281 160.867188 -249.9375 160.203125 -249 C 159.535156 -248.0625 158.535156 -247.460938 157.203125 -247.203125 C 156.128906 -247.203125 155.328125 -246 154.796875 -243.59375 C 154.796875 -242 154.128906 -239.929688 152.796875 -237.390625 C 151.460938 -234.859375 150.0625 -232.59375 148.59375 -230.59375 C 147.132812 -228.59375 146.003906 -227.59375 145.203125 -227.59375 C 144.398438 -228.132812 144 -227.46875 144 -225.59375 C 144.269531 -225.0625 144.003906 -223.59375 143.203125 -221.1875 C 142.398438 -218.789062 141.53125 -216.59375 140.59375 -214.59375 C 139.664062 -212.59375 138.9375 -211.59375 138.40625 -211.59375 C 137.601562 -211.59375 137.203125 -212.394531 137.203125 -214 C 136.929688 -215.0625 136.660156 -215.457031 136.390625 -215.1875 C 136.128906 -214.925781 135.597656 -213.863281 134.796875 -212 L 132.796875 -208 L 136 -208.40625 C 136.800781 -208.40625 139.46875 -208.800781 144 -209.59375 C 148.53125 -210.394531 153.460938 -211.332031 158.796875 -212.40625 Z M 158.40625 -252.40625 C 158.132812 -251.332031 157.929688 -250.59375 157.796875 -250.1875 C 157.660156 -249.789062 157.726562 -249.863281 158 -250.40625 C 158.53125 -250.9375 159.195312 -251.867188 160 -253.203125 C 160.800781 -254.535156 161.601562 -255.734375 162.40625 -256.796875 C 163.195312 -257.867188 164.328125 -259.46875 165.796875 -261.59375 C 167.265625 -263.726562 168.53125 -265.726562 169.59375 -267.59375 C 172.257812 -271.59375 173.59375 -273.992188 173.59375 -274.796875 C 173.332031 -275.066406 172.132812 -273.664062 170 -270.59375 C 167.863281 -267.53125 165.660156 -264.195312 163.390625 -260.59375 C 161.128906 -257 159.46875 -254.269531 158.40625 -252.40625 Z M 158.40625 -252.40625 "/></g></g></g></svg>